<svg width="42" height="42" viewBox="0 0 24 24" fill="none" xmlns="http://www.w3.org/2000/svg">
<path fill-rule="evenodd" clip-rule="evenodd" d="M8.25 18.75C8.66421 18.75 9 19.0858 9 19.5V22.5C9 22.9142 8.66421 23.25 8.25 23.25C7.83579 23.25 7.5 22.9142 7.5 22.5V19.5C7.5 19.0858 7.83579 18.75 8.25 18.75Z" fill="teal
"/>
<path fill-rule="evenodd" clip-rule="evenodd" d="M3.75 2.25C3.55109 2.25 3.36032 2.32902 3.21967 2.46967C3.07902 2.61032 3 2.80109 3 3V21.75H13.5V3C13.5 2.80109 13.421 2.61032 13.2803 2.46967C13.1397 2.32902 12.9489 2.25 12.75 2.25H3.75ZM3.75 0.75H12.75C13.3467 0.75 13.919 0.987053 14.341 1.40901C14.7629 1.83097 15 2.40326 15 3V22.3125C15 22.5611 14.9012 22.7996 14.7254 22.9754C14.5496 23.1512 14.3111 23.25 14.0625 23.25H2.25C1.83579 23.25 1.5 22.9142 1.5 22.5V3C1.5 2.40326 1.73705 1.83097 2.15901 1.40901C2.58097 0.987053 3.15326 0.75 3.75 0.75Z" fill="teal
"/>
<path fill-rule="evenodd" clip-rule="evenodd" d="M13.9393 8.68934C14.2206 8.40804 14.6022 8.25 15 8.25H20.25C20.8467 8.25 21.419 8.48705 21.841 8.90901C22.2629 9.33097 22.5 9.90326 22.5 10.5V22.5C22.5 22.9142 22.1642 23.25 21.75 23.25H14.25C13.8358 23.25 13.5 22.9142 13.5 22.5V9.75C13.5 9.35218 13.658 8.97065 13.9393 8.68934ZM20.25 9.75L15 9.75L15 21.75H21V10.5C21 10.3011 20.921 10.1103 20.7803 9.96967C20.6397 9.82902 20.4489 9.75 20.25 9.75Z" fill="teal
"/>
<path d="M4.59751 20.2439C4.44218 20.2642 4.28438 20.2354 4.14627 20.1615C4.00817 20.0875 3.89668 19.9722 3.82745 19.8317C3.75822 19.6911 3.73474 19.5325 3.76029 19.3779C3.78584 19.2234 3.85914 19.0807 3.96991 18.9699C4.08069 18.8591 4.22336 18.7858 4.37792 18.7603C4.53247 18.7347 4.69115 18.7582 4.83167 18.8274C4.9722 18.8967 5.08753 19.0082 5.16146 19.1463C5.23539 19.2844 5.26423 19.4422 5.24391 19.5975C5.22247 19.7614 5.14747 19.9137 5.03058 20.0306C4.91368 20.1475 4.76143 20.2225 4.59751 20.2439Z" fill="teal
"/>
<path d="M4.59751 16.4939C4.44218 16.5142 4.28438 16.4854 4.14627 16.4115C4.00817 16.3375 3.89668 16.2222 3.82745 16.0817C3.75822 15.9411 3.73474 15.7825 3.76029 15.6279C3.78584 15.4734 3.85914 15.3307 3.96991 15.2199C4.08069 15.1091 4.22336 15.0358 4.37792 15.0103C4.53247 14.9847 4.69115 15.0082 4.83167 15.0774C4.9722 15.1467 5.08753 15.2582 5.16146 15.3963C5.23539 15.5344 5.26423 15.6922 5.24391 15.8475C5.22247 16.0114 5.14747 16.1637 5.03058 16.2806C4.91368 16.3975 4.76143 16.4725 4.59751 16.4939Z" fill="teal
"/>
<path d="M4.59751 12.7439C4.44218 12.7642 4.28438 12.7354 4.14627 12.6615C4.00817 12.5875 3.89668 12.4722 3.82745 12.3317C3.75822 12.1911 3.73474 12.0325 3.76029 11.8779C3.78584 11.7234 3.85914 11.5807 3.96991 11.4699C4.08069 11.3591 4.22336 11.2858 4.37792 11.2603C4.53247 11.2347 4.69115 11.2582 4.83167 11.3274C4.9722 11.3967 5.08753 11.5082 5.16146 11.6463C5.23539 11.7844 5.26423 11.9422 5.24391 12.0975C5.22247 12.2614 5.14747 12.4137 5.03058 12.5306C4.91368 12.6475 4.76143 12.7225 4.59751 12.7439Z" fill="teal
"/>
<path d="M4.59751 8.99391C4.44218 9.01423 4.28438 8.98539 4.14627 8.91146C4.00817 8.83753 3.89668 8.7222 3.82745 8.58167C3.75822 8.44115 3.73474 8.28247 3.76029 8.12792C3.78584 7.97336 3.85914 7.83069 3.96991 7.71991C4.08069 7.60914 4.22336 7.53584 4.37792 7.51029C4.53247 7.48474 4.69115 7.50822 4.83167 7.57745C4.9722 7.64667 5.08753 7.75817 5.16146 7.89627C5.23539 8.03438 5.26423 8.19218 5.24391 8.34751C5.22247 8.51143 5.14747 8.66368 5.03058 8.78057C4.91368 8.89747 4.76143 8.97247 4.59751 8.99391Z" fill="teal
"/>
<path d="M4.59751 5.24391C4.44218 5.26423 4.28438 5.23539 4.14627 5.16146C4.00817 5.08753 3.89668 4.9722 3.82745 4.83167C3.75822 4.69115 3.73474 4.53247 3.76029 4.37792C3.78584 4.22336 3.85914 4.08069 3.96991 3.96991C4.08069 3.85914 4.22336 3.78584 4.37792 3.76029C4.53247 3.73474 4.69115 3.75822 4.83167 3.82745C4.9722 3.89668 5.08753 4.00817 5.16146 4.14627C5.23539 4.28438 5.26423 4.44218 5.24391 4.59751C5.22247 4.76143 5.14747 4.91368 5.03058 5.03058C4.91368 5.14747 4.76143 5.22247 4.59751 5.24391Z" fill="teal
"/>
<path d="M8.34751 16.4939C8.19218 16.5142 8.03438 16.4854 7.89627 16.4115C7.75817 16.3375 7.64667 16.2222 7.57745 16.0817C7.50822 15.9411 7.48474 15.7825 7.51029 15.6279C7.53584 15.4734 7.60914 15.3307 7.71991 15.2199C7.83069 15.1091 7.97336 15.0358 8.12792 15.0103C8.28247 14.9847 8.44115 15.0082 8.58167 15.0774C8.7222 15.1467 8.83753 15.2582 8.91146 15.3963C8.98539 15.5344 9.01423 15.6922 8.99391 15.8475C8.97247 16.0114 8.89747 16.1637 8.78057 16.2806C8.66368 16.3975 8.51143 16.4725 8.34751 16.4939Z" fill="teal
"/>
<path d="M8.34751 12.7439C8.19218 12.7642 8.03438 12.7354 7.89627 12.6615C7.75817 12.5875 7.64667 12.4722 7.57745 12.3317C7.50822 12.1911 7.48474 12.0325 7.51029 11.8779C7.53584 11.7234 7.60914 11.5807 7.71991 11.4699C7.83069 11.3591 7.97336 11.2858 8.12792 11.2603C8.28247 11.2347 8.44115 11.2582 8.58167 11.3274C8.7222 11.3967 8.83753 11.5082 8.91146 11.6463C8.98539 11.7844 9.01423 11.9422 8.99391 12.0975C8.97247 12.2614 8.89747 12.4137 8.78057 12.5306C8.66368 12.6475 8.51143 12.7225 8.34751 12.7439Z" fill="teal
"/>
<path d="M8.34751 8.99391C8.19218 9.01423 8.03438 8.98539 7.89627 8.91146C7.75817 8.83753 7.64667 8.7222 7.57745 8.58167C7.50822 8.44115 7.48474 8.28247 7.51029 8.12792C7.53584 7.97336 7.60914 7.83069 7.71991 7.71991C7.83069 7.60914 7.97336 7.53584 8.12792 7.51029C8.28247 7.48474 8.44115 7.50822 8.58167 7.57745C8.7222 7.64667 8.83753 7.75817 8.91146 7.89627C8.98539 8.03438 9.01423 8.19218 8.99391 8.34751C8.97247 8.51143 8.89747 8.66368 8.78057 8.78057C8.66368 8.89747 8.51143 8.97247 8.34751 8.99391Z" fill="teal
"/>
<path d="M8.34751 5.24391C8.19218 5.26423 8.03438 5.23539 7.89627 5.16146C7.75817 5.08753 7.64667 4.9722 7.57745 4.83167C7.50822 4.69115 7.48474 4.53247 7.51029 4.37792C7.53584 4.22336 7.60914 4.08069 7.71991 3.96991C7.83069 3.85914 7.97336 3.78584 8.12792 3.76029C8.28247 3.73474 8.44115 3.75822 8.58167 3.82745C8.7222 3.89668 8.83753 4.00817 8.91146 4.14627C8.98539 4.28438 9.01423 4.44218 8.99391 4.59751C8.97247 4.76143 8.89747 4.91368 8.78057 5.03058C8.66368 5.14747 8.51143 5.22247 8.34751 5.24391Z" fill="teal
"/>
<path d="M12.0975 20.2439C11.9422 20.2642 11.7844 20.2354 11.6463 20.1615C11.5082 20.0875 11.3967 19.9722 11.3274 19.8317C11.2582 19.6911 11.2347 19.5325 11.2603 19.3779C11.2858 19.2234 11.3591 19.0807 11.4699 18.9699C11.5807 18.8591 11.7234 18.7858 11.8779 18.7603C12.0325 18.7347 12.1911 18.7582 12.3317 18.8274C12.4722 18.8967 12.5875 19.0082 12.6615 19.1463C12.7354 19.2844 12.7642 19.4422 12.7439 19.5975C12.7225 19.7614 12.6475 19.9137 12.5306 20.0306C12.4137 20.1475 12.2614 20.2225 12.0975 20.2439Z" fill="teal
"/>
<path d="M12.0975 16.4939C11.9422 16.5142 11.7844 16.4854 11.6463 16.4115C11.5082 16.3375 11.3967 16.2222 11.3274 16.0817C11.2582 15.9411 11.2347 15.7825 11.2603 15.6279C11.2858 15.4734 11.3591 15.3307 11.4699 15.2199C11.5807 15.1091 11.7234 15.0358 11.8779 15.0103C12.0325 14.9847 12.1911 15.0082 12.3317 15.0774C12.4722 15.1467 12.5875 15.2582 12.6615 15.3963C12.7354 15.5344 12.7642 15.6922 12.7439 15.8475C12.7225 16.0114 12.6475 16.1637 12.5306 16.2806C12.4137 16.3975 12.2614 16.4725 12.0975 16.4939Z" fill="teal
"/>
<path d="M12.0975 12.7439C11.9422 12.7642 11.7844 12.7354 11.6463 12.6615C11.5082 12.5875 11.3967 12.4722 11.3274 12.3317C11.2582 12.1911 11.2347 12.0325 11.2603 11.8779C11.2858 11.7234 11.3591 11.5807 11.4699 11.4699C11.5807 11.3591 11.7234 11.2858 11.8779 11.2603C12.0325 11.2347 12.1911 11.2582 12.3317 11.3274C12.4722 11.3967 12.5875 11.5082 12.6615 11.6463C12.7354 11.7844 12.7642 11.9422 12.7439 12.0975C12.7225 12.2614 12.6475 12.4137 12.5306 12.5306C12.4137 12.6475 12.2614 12.7225 12.0975 12.7439Z" fill="teal
"/>
<path d="M12.5313 8.78092C12.8232 8.48895 12.8221 8.01437 12.5286 7.72093C12.2352 7.42748 11.7606 7.4263 11.4686 7.71828C11.1766 8.01025 11.1778 8.48483 11.4713 8.77827C11.7647 9.07172 12.2393 9.0729 12.5313 8.78092Z" fill="teal
"/>
<path d="M12.0975 5.24391C11.9422 5.26423 11.7844 5.23539 11.6463 5.16146C11.5082 5.08753 11.3967 4.9722 11.3274 4.83167C11.2582 4.69115 11.2347 4.53247 11.2603 4.37792C11.2858 4.22336 11.3591 4.08069 11.4699 3.96991C11.5807 3.85914 11.7234 3.78584 11.8779 3.76029C12.0325 3.73474 12.1911 3.75822 12.3317 3.82745C12.4722 3.89668 12.5875 4.00817 12.6615 4.14627C12.7354 4.28438 12.7642 4.44218 12.7439 4.59751C12.7225 4.76143 12.6475 4.91368 12.5306 5.03058C12.4137 5.14747 12.2614 5.22247 12.0975 5.24391Z" fill="teal
"/>
<path d="M18.75 18.75C18.6017 18.75 18.4567 18.794 18.3333 18.8764C18.21 18.9588 18.1139 19.0759 18.0571 19.213C18.0003 19.35 17.9855 19.5008 18.0144 19.6463C18.0434 19.7918 18.1148 19.9254 18.2197 20.0303C18.3246 20.1352 18.4582 20.2067 18.6037 20.2356C18.7492 20.2645 18.9 20.2497 19.037 20.1929C19.1741 20.1361 19.2912 20.04 19.3736 19.9167C19.456 19.7933 19.5 19.6483 19.5 19.5C19.5 19.3011 19.421 19.1103 19.2803 18.9697C19.1397 18.829 18.9489 18.75 18.75 18.75Z" fill="teal
"/>
<path d="M18.75 15C18.6017 15 18.4567 15.044 18.3333 15.1264C18.21 15.2088 18.1139 15.3259 18.0571 15.463C18.0003 15.6 17.9855 15.7508 18.0144 15.8963C18.0434 16.0418 18.1148 16.1754 18.2197 16.2803C18.3246 16.3852 18.4582 16.4567 18.6037 16.4856C18.7492 16.5145 18.9 16.4997 19.037 16.4429C19.1741 16.3861 19.2912 16.29 19.3736 16.1667C19.456 16.0433 19.5 15.8983 19.5 15.75C19.5 15.5511 19.421 15.3603 19.2803 15.2197C19.1397 15.079 18.9489 15 18.75 15Z" fill="teal
"/>
<path d="M18.75 11.25C18.6017 11.25 18.4567 11.294 18.3333 11.3764C18.21 11.4588 18.1139 11.5759 18.0571 11.713C18.0003 11.85 17.9855 12.0008 18.0144 12.1463C18.0434 12.2918 18.1148 12.4254 18.2197 12.5303C18.3246 12.6352 18.4582 12.7067 18.6037 12.7356C18.7492 12.7645 18.9 12.7497 19.037 12.6929C19.1741 12.6361 19.2912 12.54 19.3736 12.4167C19.456 12.2933 19.5 12.1483 19.5 12C19.5 11.8011 19.421 11.6103 19.2803 11.4697C19.1397 11.329 18.9489 11.25 18.75 11.25Z" fill="teal
"/>
<path d="M15.75 18.75C15.6017 18.75 15.4567 18.794 15.3333 18.8764C15.21 18.9588 15.1139 19.0759 15.0571 19.213C15.0003 19.35 14.9855 19.5008 15.0144 19.6463C15.0434 19.7918 15.1148 19.9254 15.2197 20.0303C15.3246 20.1352 15.4582 20.2067 15.6037 20.2356C15.7492 20.2645 15.9 20.2497 16.037 20.1929C16.1741 20.1361 16.2912 20.04 16.3736 19.9167C16.456 19.7933 16.5 19.6483 16.5 19.5C16.5 19.3011 16.421 19.1103 16.2803 18.9697C16.1397 18.829 15.9489 18.75 15.75 18.75Z" fill="teal
"/>
<path d="M15.75 15C15.6017 15 15.4567 15.044 15.3333 15.1264C15.21 15.2088 15.1139 15.3259 15.0571 15.463C15.0003 15.6 14.9855 15.7508 15.0144 15.8963C15.0434 16.0418 15.1148 16.1754 15.2197 16.2803C15.3246 16.3852 15.4582 16.4567 15.6037 16.4856C15.7492 16.5145 15.9 16.4997 16.037 16.4429C16.1741 16.3861 16.2912 16.29 16.3736 16.1667C16.456 16.0433 16.5 15.8983 16.5 15.75C16.5 15.5511 16.421 15.3603 16.2803 15.2197C16.1397 15.079 15.9489 15 15.75 15Z" fill="teal
"/>
<path d="M15.75 11.25C15.6017 11.25 15.4567 11.294 15.3333 11.3764C15.21 11.4588 15.1139 11.5759 15.0571 11.713C15.0003 11.85 14.9855 12.0008 15.0144 12.1463C15.0434 12.2918 15.1148 12.4254 15.2197 12.5303C15.3246 12.6352 15.4582 12.7067 15.6037 12.7356C15.7492 12.7645 15.9 12.7497 16.037 12.6929C16.1741 12.6361 16.2912 12.54 16.3736 12.4167C16.456 12.2933 16.5 12.1483 16.5 12C16.5 11.8011 16.421 11.6103 16.2803 11.4697C16.1397 11.329 15.9489 11.25 15.75 11.25Z" fill="teal
"/>
</svg>
