<svg width="42" height="42" viewBox="0 0 24 24" fill="none" xmlns="http://www.w3.org/2000/svg">
<path fill-rule="evenodd" clip-rule="evenodd" d="M20.25 5.25V18.75H21.75V5.25H20.25ZM18.75 4.875C18.75 4.25368 19.2537 3.75 19.875 3.75H22.125C22.7463 3.75 23.25 4.25368 23.25 4.875V19.125C23.25 19.7463 22.7463 20.25 22.125 20.25H19.875C19.2537 20.25 18.75 19.7463 18.75 19.125V4.875Z" fill="teal"/>
<path fill-rule="evenodd" clip-rule="evenodd" d="M14.25 9V18.75H15.75V9H14.25ZM12.75 8.625C12.75 8.00368 13.2537 7.5 13.875 7.5H16.125C16.7463 7.5 17.25 8.00368 17.25 8.625V19.125C17.25 19.7463 16.7463 20.25 16.125 20.25H13.875C13.2537 20.25 12.75 19.7463 12.75 19.125V8.625Z" fill="teal"/>
<path fill-rule="evenodd" clip-rule="evenodd" d="M8.25 12V18.75H9.75V12H8.25ZM6.75 11.625C6.75 11.0037 7.25368 10.5 7.875 10.5H10.125C10.7463 10.5 11.25 11.0037 11.25 11.625V19.125C11.25 19.7463 10.7463 20.25 10.125 20.25H7.875C7.25368 20.25 6.75 19.7463 6.75 19.125V11.625Z" fill="teal"/>
<path fill-rule="evenodd" clip-rule="evenodd" d="M2.25 15V18.75H3.75V15H2.25ZM0.75 14.625C0.75 14.0037 1.25368 13.5 1.875 13.5H4.125C4.74632 13.5 5.25 14.0037 5.25 14.625V19.125C5.25 19.7463 4.74632 20.25 4.125 20.25H1.875C1.25368 20.25 0.75 19.7463 0.75 19.125V14.625Z" fill="teal"/>
</svg>
